<svg width="25" height="23" viewBox="0 0 25 23" fill="none" xmlns="http://www.w3.org/2000/svg">
<path d="M12.5126 2.07209C15.5977 2.07209 15.9631 2.08359 17.1818 2.1389C17.9146 2.14782 18.6404 2.28173 19.3277 2.53481C19.8261 2.72611 20.2787 3.01915 20.6565 3.39508C21.0342 3.771 21.3286 4.22148 21.5209 4.71751C21.7752 5.40152 21.9097 6.12386 21.9187 6.85313C21.9737 8.06604 21.9858 8.42965 21.9858 11.5C21.9858 14.5704 21.9742 14.934 21.9187 16.1469C21.9097 16.8761 21.7752 17.5985 21.5209 18.2825C21.3286 18.7785 21.0342 19.229 20.6565 19.6049C20.2787 19.9809 19.8261 20.2739 19.3277 20.4652C18.6404 20.7183 17.9146 20.8522 17.1818 20.8611C15.9636 20.9159 15.5983 20.9279 12.5126 20.9279C9.42701 20.9279 9.06166 20.9164 7.84347 20.8611C7.1107 20.8522 6.3849 20.7183 5.69761 20.4652C5.1992 20.2739 4.74656 19.9809 4.36883 19.6049C3.9911 19.229 3.69665 18.7785 3.50443 18.2825C3.25014 17.5985 3.11559 16.8761 3.10662 16.1469C3.0516 14.934 3.03949 14.5704 3.03949 11.5C3.03949 8.42965 3.05105 8.06604 3.10662 6.85313C3.11559 6.12386 3.25014 5.40152 3.50443 4.71751C3.69665 4.22148 3.9911 3.771 4.36883 3.39508C4.74656 3.01915 5.1992 2.72611 5.69761 2.53481C6.3849 2.28173 7.1107 2.14782 7.84347 2.1389C9.06221 2.08414 9.42756 2.07209 12.5126 2.07209ZM12.5126 0C9.37639 0 8.98133 0.0131422 7.74883 0.0689967C6.78983 0.0879806 5.841 0.268693 4.94271 0.603448C4.17212 0.892394 3.47416 1.3452 2.89754 1.93027C2.30913 2.50435 1.85376 3.19937 1.56325 3.96676C1.22689 4.86076 1.04531 5.80506 1.02624 6.75949C0.971213 7.985 0.958008 8.37817 0.958008 11.4995C0.958008 14.6207 0.971213 15.0139 1.02734 16.2405C1.04641 17.1949 1.22799 18.1392 1.56435 19.0332C1.85454 19.8005 2.30953 20.4955 2.89754 21.0697C3.47448 21.6549 4.17283 22.1077 4.94381 22.3966C5.8421 22.7313 6.79093 22.912 7.74993 22.931C8.98243 22.9858 9.37584 23 12.5137 23C15.6517 23 16.0451 22.9869 17.2776 22.931C18.2366 22.912 19.1854 22.7313 20.0837 22.3966C20.851 22.1005 21.5478 21.6484 22.1295 21.0691C22.7113 20.4898 23.1651 19.796 23.462 19.0321C23.7984 18.1381 23.98 17.1938 23.9991 16.2394C24.0541 15.0139 24.0673 14.6207 24.0673 11.4995C24.0673 8.37817 24.0541 7.985 23.998 6.75839C23.9789 5.80396 23.7973 4.85967 23.4609 3.96567C23.1708 3.19837 22.7158 2.50336 22.1278 1.92917C21.5508 1.34397 20.8525 0.891157 20.0815 0.602352C19.1832 0.267598 18.2344 0.0868855 17.2754 0.0679016C16.044 0.0131423 15.6489 0 12.5126 0Z" fill="#CE0E2D"/>
<path d="M12.51 5.59473C11.3364 5.59473 10.1893 5.94106 9.21348 6.58994C8.23771 7.23882 7.47718 8.16109 7.02809 9.24013C6.57899 10.3192 6.46148 11.5065 6.69043 12.652C6.91938 13.7975 7.4845 14.8497 8.31433 15.6756C9.14415 16.5015 10.2014 17.0639 11.3524 17.2917C12.5034 17.5196 13.6965 17.4027 14.7807 16.9557C15.8649 16.5087 16.7916 15.7519 17.4436 14.7807C18.0956 13.8096 18.4436 12.6679 18.4436 11.5C18.4436 9.9338 17.8184 8.43178 16.7057 7.32433C15.5929 6.21688 14.0837 5.59473 12.51 5.59473ZM12.51 15.3331C11.7482 15.3331 11.0036 15.1083 10.3702 14.6871C9.73681 14.2659 9.24315 13.6673 8.95164 12.9669C8.66012 12.2664 8.58385 11.4957 8.73246 10.7522C8.88107 10.0086 9.2479 9.3256 9.78655 8.78952C10.3252 8.25345 11.0115 7.88837 11.7586 7.74047C12.5057 7.59257 13.2801 7.66848 13.9839 7.9586C14.6877 8.24872 15.2892 8.74003 15.7124 9.37038C16.1357 10.0007 16.3615 10.7418 16.3615 11.5C16.3615 12.5166 15.9558 13.4916 15.2335 14.2104C14.5112 14.9293 13.5315 15.3331 12.51 15.3331Z" fill="#CE0E2D"/>
<path d="M18.6788 6.74034C19.4446 6.74034 20.0654 6.12252 20.0654 5.3604C20.0654 4.59829 19.4446 3.98047 18.6788 3.98047C17.913 3.98047 17.2922 4.59829 17.2922 5.3604C17.2922 6.12252 17.913 6.74034 18.6788 6.74034Z" fill="#CE0E2D"/>
</svg>
